<?xml version="1.0" encoding="UTF-8" standalone="no"?>
<!-- Created with Inkscape (http://www.inkscape.org/) -->

<svg
   width="256"
   height="256"
   viewBox="0 0 67.733332 67.733335"
   version="1.1"
   id="svg5"
   inkscape:version="1.1.1 (3bf5ae0d25, 2021-09-20)"
   sodipodi:docname="favicon.svg"
   inkscape:export-filename="C:\Lernpfadplaner_Demokrateam\public\img\favicon\favicon.png"
   inkscape:export-xdpi="96"
   inkscape:export-ydpi="96"
   xmlns:inkscape="http://www.inkscape.org/namespaces/inkscape"
   xmlns:sodipodi="http://sodipodi.sourceforge.net/DTD/sodipodi-0.dtd"
   xmlns="http://www.w3.org/2000/svg"
   xmlns:svg="http://www.w3.org/2000/svg">
  <sodipodi:namedview
     id="namedview7"
     pagecolor="#ffffff"
     bordercolor="#666666"
     borderopacity="1.0"
     inkscape:pageshadow="2"
     inkscape:pageopacity="0.0"
     inkscape:pagecheckerboard="0"
     inkscape:document-units="mm"
     showgrid="false"
     units="px"
     inkscape:zoom="2.9647587"
     inkscape:cx="133.06311"
     inkscape:cy="132.05122"
     inkscape:window-width="1920"
     inkscape:window-height="1017"
     inkscape:window-x="-8"
     inkscape:window-y="515"
     inkscape:window-maximized="1"
     inkscape:current-layer="layer1" />
  <defs
     id="defs2">
    <linearGradient
       id="linearGradient3320"
       inkscape:swatch="gradient">
      <stop
         style="stop-color:#000000;stop-opacity:1;"
         offset="0"
         id="stop3316" />
      <stop
         style="stop-color:#000000;stop-opacity:0;"
         offset="1"
         id="stop3318" />
    </linearGradient>
    <marker
       style="overflow:visible;"
       id="Arrow1Lend"
       refX="0.0"
       refY="0.0"
       orient="auto"
       inkscape:stockid="Arrow1Lend"
       inkscape:isstock="true">
      <path
         transform="scale(0.8) rotate(180) translate(12.5,0)"
         style="fill-rule:evenodd;fill:context-stroke;stroke:context-stroke;stroke-width:1.0pt;"
         d="M 0.0,0.0 L 5.0,-5.0 L -12.5,0.0 L 5.0,5.0 L 0.0,0.0 z "
         id="path2989" />
    </marker>
  </defs>
  <g
     inkscape:label="Ebene 1"
     inkscape:groupmode="layer"
     id="layer1">
    <rect
       style="fill:#8feb34;stroke:none;stroke-width:0.264999;stroke-miterlimit:4;stroke-dasharray:none;stroke-opacity:1"
       id="rect3624"
       width="60.506611"
       height="58.632511"
       x="3.7481971"
       y="3.7481971"
       ry="9.9951906" />
    <text
       xml:space="preserve"
       style="font-style:normal;font-weight:normal;font-size:10.5833px;line-height:1.25;font-family:sans-serif;fill:#00ff00;fill-opacity:1;stroke:none;stroke-width:0.264583"
       x="11.51232"
       y="20.882811"
       id="text5165"><tspan
         sodipodi:role="line"
         id="tspan5163"
         style="fill:#00ff00;stroke-width:0.264583"
         x="11.51232"
         y="20.882811" /></text>
    <text
       xml:space="preserve"
       style="font-style:normal;font-weight:normal;font-size:10.5833px;line-height:1.25;font-family:sans-serif;fill:#000000;fill-opacity:1;stroke:none;stroke-width:0.264583"
       x="13.207932"
       y="23.738583"
       id="text8711"><tspan
         sodipodi:role="line"
         id="tspan8709"
         style="stroke-width:0.264583"></tspan></text>
    <path
       style="fill:#000000;stroke:none;stroke-width:0.264999;stroke-miterlimit:4;stroke-dasharray:none;stroke-opacity:1"
       id="path10132"
       d="m 7.1023058,11.888662 c 2.2921971,2.235547 4.7152792,4.343674 7.3055442,6.230586 1.546405,1.126498 3.080669,2.285065 4.742852,3.232437 2.012013,1.146761 4.166985,2.02219 6.250477,3.033285 2.316846,0.77345 4.56442,1.798372 6.950533,2.320349 5.051028,1.104945 10.130859,1.151514 15.243551,0.637024 3.686431,-0.370967 7.186792,-1.069327 10.500278,-2.769623 0.981257,-0.503528 1.777632,-1.306005 2.666447,-1.959008 0.723744,-1.445937 1.400151,-2.004472 0.930045,-3.624929 C 61.55093,18.502398 61.236801,18.070525 60.900235,17.692104 60.542508,17.289893 60.09061,16.976943 59.640353,16.681969 58.352279,15.838125 57.696316,15.7242 56.212787,15.213004 54.91019,14.964801 53.093365,14.582343 51.749502,14.459481 c -0.555948,-0.05083 -3.983593,-0.176857 -4.662596,-0.175348 -1.235694,0.0027 -2.874799,0.100968 -4.136433,0.166568 -2.367433,0.459667 -6.247923,0.589705 -8.593502,2.140019 -0.681617,0.450517 -1.389536,1.168883 -1.883347,1.815078 -0.267451,0.349982 -0.482795,0.73687 -0.724193,1.105304 -0.55082,1.128948 -0.742418,1.344313 -0.996305,2.612007 -0.192685,0.962102 -0.26756,2.387082 -0.245205,3.353303 0.01476,0.637844 0.09733,1.272423 0.131419,1.909526 0.03145,0.587791 0.04345,1.17646 0.06518,1.764689 0.05551,0.56583 0.109543,1.131806 0.166542,1.697485 0.05636,0.559295 0.112464,1.118629 0.173522,1.677429 0.223716,2.047383 0.499811,4.097946 0.448707,6.164104 -0.02148,0.868434 -0.123976,1.73297 -0.185965,2.599454 -0.464915,1.759313 -0.614572,3.183215 -1.838542,4.620509 -0.968693,1.137523 -2.603357,1.977059 -4.110724,2.005782 -0.256531,0.0049 0.728115,-0.476969 0.496786,-0.58796 -1.088048,-0.522036 -2.344372,-0.573939 -3.516558,-0.860906 -1.196176,-0.600057 -2.457365,-1.085064 -3.58853,-1.800167 -2.029651,-1.283107 -4.032309,-3.185311 -5.408965,-5.15702 -0.899051,-1.287664 -1.888143,-3.334724 -1.971493,-4.998119 -0.02872,-0.573239 0.221479,-1.12635 0.332218,-1.689524 0.276108,-0.351067 0.484785,-0.767783 0.828325,-1.0532 0.303553,-0.252198 1.454568,-0.57635 1.0641,-0.519057 -1.009318,0.148093 -2.300718,0.01376 -2.954912,0.796486 -0.441215,0.527915 1.369911,0.151693 2.04289,0.294746 1.175639,0.249901 3.622323,1.064223 4.6885,1.403733 1.0242,0.335077 2.05031,0.664366 3.072598,1.005229 1.248449,0.416274 2.501667,0.81937 3.739525,1.266153 2.587117,0.933778 5.16056,1.968114 7.666244,3.103438 1.118653,0.506862 2.179383,1.142262 3.319933,1.597718 1.520013,0.606986 3.098448,1.055989 4.647674,1.583984 10.271648,2.070703 4.617196,1.08072 16.994735,2.784795 0,0 0.114622,-0.03552 0.114622,-0.03552 v 0 c -11.949731,-1.643665 -6.8248,-0.32672 -15.550059,-3.192036 -1.301901,-0.59408 -2.59673,-1.203904 -3.905703,-1.782233 -1.188378,-0.52505 -2.392219,-1.014408 -3.585749,-1.527636 -1.246132,-0.535844 -2.491037,-1.074592 -3.733202,-1.61957 -6.356122,-2.788626 -0.879997,-0.400105 -6.718277,-3.032157 -0.863844,-0.389445 -1.734714,-0.763111 -2.602071,-1.144666 -1.644951,-0.681427 -2.512237,-1.08534 -4.177478,-1.613437 -0.580939,-0.184233 -1.154164,-0.514583 -1.762891,-0.484876 -2.070754,0.101058 -4.137403,0.408633 -6.1583042,0.871445 -0.3910121,0.08955 -0.7124409,0.4221 -0.9381257,0.753726 -0.24281,0.356788 -0.2736485,0.818619 -0.4104727,1.227929 0.1135092,0.575855 0.115307,1.185561 0.3405272,1.727565 0.5306653,1.277072 2.4951464,3.912714 3.2443534,4.828482 0.797937,0.975328 1.59735,1.959165 2.516811,2.820884 2.091856,1.960494 3.809977,2.862927 6.217905,4.355066 4.496582,1.635328 2.876929,1.525653 9.220298,0.576839 1.757447,-0.262869 3.244474,-0.83193 4.301558,-2.328614 0.702699,-0.994928 1.247799,-3.644895 1.514674,-4.698378 0.154588,-0.891469 0.343739,-1.77763 0.463761,-2.674403 0.213271,-1.593466 0.258276,-2.880627 0.241189,-4.47122 -0.0066,-0.617181 -0.02519,-1.234713 -0.06919,-1.850358 -0.04975,-0.696077 -0.306986,-2.662166 -0.394131,-3.35375 -0.06963,-0.572823 -0.180769,-1.142117 -0.208897,-1.718472 -0.03082,-0.631504 -0.0036,-1.265261 0.03248,-1.896487 0.09267,-1.622474 0.367583,-3.124931 1.046234,-4.610835 0.183486,-0.401743 0.424305,-0.77474 0.636458,-1.162109 0.250185,-0.346212 0.476597,-0.710912 0.750554,-1.038635 0.79624,-0.952513 1.796566,-1.738303 2.947255,-2.217374 0.417473,-0.173807 1.741299,-0.404357 1.289423,-0.421683 -0.818198,-0.03137 -1.618089,0.25204 -2.427132,0.37806 0.701953,-0.06692 1.402157,-0.155829 2.105859,-0.200774 0.751308,-0.04799 1.504429,-0.06599 2.257173,-0.07789 1.823837,-0.02883 2.760822,-0.0087 4.574824,0.156145 0.726421,0.066 1.455046,0.127631 2.173493,0.253632 0.684409,0.12003 1.35186,0.322122 2.027791,0.483183 0.55441,0.220002 1.122849,0.407508 1.663234,0.660007 0.839303,0.392169 1.865074,0.996397 2.53206,1.663208 0.322331,0.322244 0.628706,0.675981 0.836438,1.081673 0.219144,0.427977 0.394972,0.898923 0.423481,1.378897 0.03424,0.576535 -0.159766,1.143999 -0.239649,1.715998 -0.461105,0.598478 -0.790741,1.326765 -1.383313,1.795434 -2.507049,1.982833 -5.127291,2.318859 -8.309708,2.644013 -5.090628,0.520121 -10.214824,0.465572 -15.242262,-0.632862 -2.385882,-0.521284 -4.63333,-1.545618 -6.949995,-2.318427 -1.837661,-1.072227 -3.795519,-1.9609 -5.512984,-3.216681 -1.357156,-0.992329 -2.534292,-2.223432 -3.648755,-3.482226 -1.464733,-1.654426 -2.501317,-3.36835 -3.221786,-5.418602 -0.09643,-0.274412 -0.21896,-1.148601 -0.286035,-1.60722 0,0 -5.7451142,1.259887 -5.7451142,1.259887 z"
       inkscape:export-filename="C:\Lernpfadplaner_Demokrateam\public\img\favicon\favicon.png"
       inkscape:export-xdpi="96"
       inkscape:export-ydpi="96" />
    <circle
       id="path10149"
       style="fill:#000000;stroke:#000000;stroke-width:0.264583"
       cx="70.948021"
       cy="39.80228"
       r="0.017858816" />
    <circle
       id="path10151"
       style="fill:#000000;stroke:#000000;stroke-width:0.264583"
       cx="70.948021"
       cy="39.80228"
       r="0.017858816" />
    <circle
       id="path10170"
       style="fill:#000000;stroke:#000000;stroke-width:0.264583"
       cx="74.874702"
       cy="41.140923"
       r="0.017858816" />
    <circle
       id="path10172"
       style="fill:#000000;stroke:#000000;stroke-width:0.264583"
       cx="74.874702"
       cy="41.140923"
       r="0.017858816" />
  </g>
</svg>
